<svg xmlns="http://www.w3.org/2000/svg" width="100" height="96" fill="none" viewBox="0 0 100 96"><path fill="#FF0" d="M64.4692 49.7955H46.157L35.3944 67.6319H43.3218L37.2239 92.0356L64.6063 61.026H56.5467L64.4692 49.7955Z"/><path fill="#000" d="M37.2228 95.1318C36.7329 95.1318 36.2392 95.0158 35.7831 94.7761C34.5198 94.1117 33.8743 92.6698 34.2202 91.2853L39.357 70.7287H35.3948C34.278 70.7287 33.2475 70.1271 32.6987 69.1546C32.1497 68.1822 32.1669 66.9892 32.7438 66.0327L43.5064 48.1963C44.0671 47.2673 45.0728 46.7 46.1576 46.7H64.4698C65.6263 46.7 66.6865 47.3445 67.2187 48.3713C67.7509 49.398 67.6664 50.6357 66.9997 51.5811L62.5206 57.9303H64.6071C65.8245 57.9303 66.929 58.6436 67.4292 59.7536C67.9298 60.8632 67.7335 62.1634 66.9281 63.0757L39.5454 94.0853C38.9411 94.7685 38.0888 95.1318 37.2228 95.1318ZM40.879 64.536H43.3218C44.2752 64.536 45.1752 64.9751 45.7623 65.7265C46.349 66.4778 46.5568 67.4579 46.3258 68.3827L43.3048 80.4713L57.7419 64.122H56.5467C55.3903 64.122 54.3301 63.4774 53.7979 62.4507C53.2657 61.4239 53.3502 60.1862 54.0168 59.2409L58.496 52.8916H47.9049L40.879 64.536Z"/><path fill="#000" d="M90.198 35.8589C91.0837 33.1389 91.5316 30.3065 91.5316 27.402C91.5316 12.2925 79.2391 0 64.1296 0C54.9907 0 46.5246 4.54418 41.4521 12.0169C40.8066 11.8265 40.1538 11.6665 39.496 11.5298C39.448 11.5198 39.3993 11.5106 39.3515 11.5011C39.0069 11.4317 38.661 11.3698 38.3134 11.3153C38.2667 11.3079 38.2198 11.2995 38.1732 11.2927C37.7874 11.2345 37.4003 11.1847 37.0112 11.1446C36.9683 11.1403 36.9249 11.1372 36.8817 11.1331C36.5477 11.1007 36.2126 11.0755 35.8765 11.0563C35.7811 11.0507 35.6858 11.0456 35.5901 11.0411C35.2096 11.0237 34.8282 11.012 34.4452 11.012C20.7591 11.012 9.62488 22.1465 9.62488 35.8323C9.62488 35.8708 9.62488 35.9091 9.62527 35.9475C3.78577 38.947 0 45.016 0 51.7039C0 61.4686 7.94381 69.4126 17.7085 69.4126H22.1289C23.8387 69.4126 25.225 68.0265 25.225 66.3165C25.225 64.6066 23.8385 63.2204 22.1289 63.2204H17.7085C11.3583 63.2204 6.19243 58.0542 6.19243 51.7039C6.19243 46.8381 9.27312 42.4755 13.8585 40.8488C15.197 40.3737 16.0407 39.0493 15.905 37.6356C15.8464 37.0216 15.8165 36.4147 15.8165 35.8321C15.8165 25.5606 24.173 17.204 34.4446 17.204C34.762 17.204 35.0772 17.2124 35.3907 17.2283C35.4514 17.2314 35.5114 17.2378 35.5718 17.2415C35.8268 17.2568 36.0813 17.274 36.3337 17.2997C36.3808 17.3044 36.4272 17.3119 36.4743 17.3171C36.7399 17.3458 37.0046 17.3781 37.2669 17.4181C37.2987 17.423 37.33 17.4296 37.3616 17.4345C37.6382 17.4783 37.913 17.5261 38.1855 17.582C38.2077 17.5867 38.23 17.5925 38.2523 17.5972C38.5327 17.6558 38.8114 17.7195 39.0872 17.7904C39.1048 17.7951 39.122 17.8003 39.1396 17.805C39.4194 17.8781 39.6976 17.9564 39.9722 18.0419C39.9853 18.046 39.9982 18.0509 40.0113 18.055C47.5719 20.4279 53.0721 27.4996 53.0721 35.8325C53.0721 37.5425 54.4586 38.9286 56.1682 38.9286C57.8778 38.9286 59.2643 37.5425 59.2643 35.8325C59.2643 26.8248 54.4403 18.9238 47.2406 14.5739C51.2186 9.34011 57.4403 6.19263 64.129 6.19263C75.8238 6.19263 85.3386 15.7072 85.3386 27.4022C85.3386 30.5088 84.6776 33.5079 83.3743 36.3161C82.9909 37.1419 82.9907 38.0946 83.3731 38.9206C83.7555 39.7466 84.4821 40.3624 85.3596 40.6042C90.3337 41.9755 93.8078 46.5398 93.8078 51.7043C93.8078 58.0546 88.6411 63.2208 82.2913 63.2208H75.2891C73.5793 63.2208 72.1929 64.607 72.1929 66.3169C72.1929 68.0269 73.5795 69.413 75.2891 69.413H82.2913C92.056 69.413 100 61.4688 100 51.7043C100.001 44.9212 96.1031 38.8112 90.198 35.8589Z"/><path fill="#000" d="M63.1526 86.0444C62.4245 86.0444 61.693 85.7889 61.1046 85.2692C59.8227 84.1371 59.7014 82.1807 60.8331 80.899L66.3591 74.641C67.4908 73.3591 69.4476 73.2372 70.7293 74.3695C72.0111 75.5015 72.1324 77.458 71.0007 78.7396L65.4747 84.9977C64.8628 85.6909 64.0097 86.0444 63.1526 86.0444Z"/><path fill="#000" d="M20.4898 86.0444C19.7613 86.0444 19.0302 85.7889 18.4418 85.2692C17.1599 84.1375 17.0386 82.1807 18.1703 80.899L23.6967 74.641C24.8287 73.3595 26.7858 73.2379 28.0668 74.3697C29.3487 75.5013 29.47 77.4582 28.3383 78.7398L22.8119 84.9979C22.1998 85.6905 21.3469 86.0444 20.4898 86.0444Z"/></svg>