<svg xmlns="http://www.w3.org/2000/svg" width="148" height="148" fill="none" viewBox="0 0 148 148"><g clip-path="url(#clip0_27_32)"><path fill="#231F20" d="M50.875 122.563C54.7068 122.563 57.8125 125.671 57.8125 129.5C57.8125 132.053 59.8845 134.125 62.4375 134.125C64.9905 134.125 67.0625 132.053 67.0625 129.5V77.3786C60.6661 79.3928 55.4723 84.1079 52.8129 90.1875C52.8129 90.1875 52.207 91.2628 50.875 91.945V83.25C50.875 56.277 59.4567 31.3228 74 10.9034C88.5433 31.3228 97.125 56.277 97.125 83.25V91.945C95.793 91.2628 95.1871 90.1875 95.1871 90.1875C92.5278 84.1079 87.3339 79.3928 80.9375 77.3786V129.5C80.9375 139.717 72.6541 148 62.4375 148C52.2209 148 43.9375 139.717 43.9375 129.5C43.9375 125.671 47.0432 122.563 50.875 122.563ZM62.4375 143.375C70.0988 143.375 76.3125 137.161 76.3125 129.5V76.442C75.5517 76.3657 74.7816 76.3125 74 76.3125C73.2184 76.3125 72.4483 76.3657 71.6875 76.442V129.5C71.6875 134.608 67.5458 138.75 62.4375 138.75C57.3292 138.75 53.1875 134.608 53.1875 129.5C53.1875 128.221 52.1538 127.188 50.875 127.188C49.5962 127.188 48.5625 128.221 48.5625 129.5C48.5625 137.161 54.7762 143.375 62.4375 143.375Z"/><path fill="#231F20" d="M148 83.25C148 83.25 148 85.5625 145.688 85.5625C143.375 85.5625 141.37 83.25 141.37 83.25C137.177 78.9718 131.341 76.3125 124.875 76.3125C115.394 76.3125 107.258 82.0243 103.688 90.1875C103.688 90.1875 103.082 91.2628 101.75 91.945V83.25C101.75 55.789 93.1637 30.3562 78.5834 9.40491C117.315 11.7752 148 43.919 148 83.25Z"/><path fill="#231F20" d="M69.4166 9.40491C54.8363 30.3562 46.25 55.789 46.25 83.25V91.945C44.918 91.2628 44.3121 90.1875 44.3121 90.1875C40.7416 82.0243 32.6062 76.3125 23.125 76.3125C16.6592 76.3125 10.8248 78.9718 6.62994 83.25C6.62994 83.25 4.625 85.5625 2.3125 85.5625C0 85.5625 0 83.25 0 83.25C0 43.919 30.6846 11.7752 69.4166 9.40491Z"/><path fill="#231F20" d="M74 0C77.8318 0 80.9375 3.108 80.9375 6.9375H67.0625C67.0625 3.108 70.1682 0 74 0Z"/></g><defs><clipPath id="clip0_27_32"><rect width="148" height="148" fill="#fff" transform="matrix(-1 0 0 1 148 0)"/></clipPath></defs></svg>