<svg xmlns="http://www.w3.org/2000/svg" width="108" height="108" fill="none" viewBox="0 0 108 108"><path stroke="#000" stroke-linecap="round" stroke-linejoin="round" stroke-miterlimit="10" stroke-width="8" d="M92.75 68.3453C99.7083 61.548 104 52.04 104 41.5313C104 20.8057 87.2083 4 66.5 4C48.6667 4 33.75 16.4687 29.9583 33.191H26.9167C14.3333 33.191 4 43.4912 4 56.1268C4 63.4245 7.41667 69.9299 12.75 74.1418"/><path stroke="#000" stroke-linecap="round" stroke-linejoin="round" stroke-miterlimit="10" stroke-width="8" d="M54 61.5062V79.2293"/><path stroke="#000" stroke-linecap="round" stroke-linejoin="round" stroke-miterlimit="10" stroke-width="8" d="M61.0833 54.417L54 61.5062L46.9166 54.417"/><path stroke="#000" stroke-linecap="round" stroke-linejoin="round" stroke-miterlimit="10" stroke-width="8" d="M38.6667 70.3469L54.0001 79.2293"/><path stroke="#000" stroke-linecap="round" stroke-linejoin="round" stroke-miterlimit="10" stroke-width="8" d="M36.0833 60.6722L38.6667 70.347L29 72.9325"/><path stroke="#000" stroke-linecap="round" stroke-linejoin="round" stroke-miterlimit="10" stroke-width="8" d="M38.6667 88.0701L54.0001 79.2294"/><path stroke="#000" stroke-linecap="round" stroke-linejoin="round" stroke-miterlimit="10" stroke-width="8" d="M29 85.4846L38.6667 88.07L36.0833 97.7448"/><path stroke="#000" stroke-linecap="round" stroke-linejoin="round" stroke-miterlimit="10" stroke-width="8" d="M54 96.9108V79.2294"/><path stroke="#000" stroke-linecap="round" stroke-linejoin="round" stroke-miterlimit="10" stroke-width="8" d="M46.9166 104L54 96.9108L61.0833 104"/><path stroke="#000" stroke-linecap="round" stroke-linejoin="round" stroke-miterlimit="10" stroke-width="8" d="M69.3333 88.0701L54 79.2294"/><path stroke="#000" stroke-linecap="round" stroke-linejoin="round" stroke-miterlimit="10" stroke-width="8" d="M71.9166 97.7448L69.3333 88.07L78.9999 85.4846"/><path stroke="#000" stroke-linecap="round" stroke-linejoin="round" stroke-miterlimit="10" stroke-width="8" d="M69.3333 70.3469L54 79.2293"/><path stroke="#000" stroke-linecap="round" stroke-linejoin="round" stroke-miterlimit="10" stroke-width="8" d="M78.9999 72.9325L69.3333 70.347L71.9166 60.6722"/></svg>