<svg width="134" height="134" viewBox="0 0 134 134" fill="none" xmlns="http://www.w3.org/2000/svg">
<path d="M74.6769 39.4665L70.1082 53.4455L65.5396 39.4665C64.6989 36.8897 66.0604 34.1126 68.5823 33.2552C71.1087 32.3932 73.8362 33.7864 74.6769 36.3585C75.0195 37.4116 74.9967 38.4927 74.6769 39.4665ZM99.1831 53.6785L86.2584 60.2719L92.7231 47.0897C93.9155 44.662 96.8074 43.6835 99.1831 44.8904C101.563 46.1065 102.523 49.0561 101.34 51.4838C100.851 52.4716 100.088 53.2172 99.1831 53.6785ZM106.657 81.4034L92.9515 76.7438L106.657 72.0841C109.184 71.2221 111.907 72.6153 112.752 75.1921C113.593 77.7642 112.227 80.5414 109.7 81.4034C108.672 81.7529 107.612 81.7249 106.657 81.4034ZM47.4934 47.0897L53.958 60.2719L41.0333 53.6785C38.653 52.4623 37.689 49.5127 38.8769 47.0897C40.0693 44.662 42.9658 43.6835 45.337 44.8904C46.3101 45.3889 47.0411 46.1671 47.4934 47.0897ZM89.6438 82.997C90.2788 81.0213 90.6672 78.9385 90.6672 76.7438C90.6672 65.1832 81.443 55.7753 70.1082 55.7753C63.9862 55.7753 58.5175 58.5432 54.7712 62.8953L54.1179 62.7648C46.004 62.7648 38.7261 66.3993 33.7006 72.1354C32.6041 71.7626 31.5442 71.7346 30.5162 72.0841C27.9898 72.9462 26.6237 75.7233 27.4644 78.2954C27.7248 79.0736 28.1862 79.6887 28.7299 80.2106C27.437 83.4583 26.706 87.0043 26.706 90.7227L26.7151 91.3099C18.8342 93.3834 13 100.69 13 109.361C13 119.641 21.2007 128 31.2746 128H81.5299C94.1256 128 104.373 117.548 104.373 104.702C104.373 94.7813 98.2329 86.3473 89.6438 82.997ZM70.1082 65.0946C76.4084 65.0946 81.5299 70.3181 81.5299 76.7438C81.5299 78.4492 81.0913 80.0335 80.4425 81.492C78.8252 81.5898 77.1531 81.8368 75.3348 82.368C72.9545 76.0635 68.0066 71.1149 61.7795 68.8317C63.8629 66.5485 66.8142 65.0946 70.1082 65.0946ZM81.5299 118.681H31.2746C26.2308 118.681 22.1373 114.501 22.1373 109.361C22.1373 104.222 26.2308 100.042 30.8543 100.014L37.3509 100.089L36.2179 94.4877C35.9666 93.2623 35.8433 91.9902 35.8433 90.7227C35.8433 80.4435 44.044 72.0841 54.1179 72.0841L54.4332 72.0189C63.1319 72.2752 70.4006 78.5704 72.0088 87.256L72.1824 88.1227C72.7443 90.1543 74.5444 91.4124 76.5043 91.4403L77.8247 91.3332C79.2501 90.9138 80.4242 90.7227 81.5299 90.7227C89.0864 90.7227 95.2358 96.9946 95.2358 104.702C95.2358 112.409 89.0864 118.681 81.5299 118.681Z" fill="black"/>
</svg>
