<svg xmlns="http://www.w3.org/2000/svg" width="134" height="134" fill="none" viewBox="0 0 134 134"><g clip-path="url(#clip0_38_102)"><path fill="#FFCE00" d="M107.532 23.1343C97.3958 17.0789 85.4556 13.7787 72.7775 14.2409C53.9991 14.9254 37.43 23.7156 26.3051 37.1208C30.2568 37.1208 34.4394 37.1208 37.4132 37.1208C46.0283 37.1208 53.4808 41.9711 57.1916 49.0981C59.7694 46.7327 63.2163 45.3103 66.9996 45.3103C70.7733 45.3103 74.2121 46.7255 76.788 49.0795C80.5125 41.9625 87.9785 37.1208 96.5859 37.1208C102.941 37.1208 114.809 37.1208 118.156 37.1208C118.393 37.1208 118.588 37.1208 118.734 37.1208C115.714 31.9106 111.927 27.1983 107.532 23.1343Z"/><path fill="#FFCE00" d="M122.682 56.135C122.682 52.1118 122.301 48.1787 121.583 44.3641H118.91C118.91 49.6051 118.91 56.2772 118.91 59.304C118.91 71.6321 108.914 81.6637 96.5859 81.6637C84.3863 81.6637 74.4783 71.9069 74.2719 59.7562H74.2017C74.2017 55.6819 70.9707 52.5536 66.9996 52.5536C63.0284 52.5536 59.7974 55.6819 59.7974 59.7562H59.6897C59.4841 71.906 49.4625 81.628 37.2629 81.628C24.9352 81.628 14.7877 71.6321 14.7877 59.3035C14.7877 58.8119 14.7877 58.222 14.7877 57.5597C12.5242 64.5572 11.3906 72.0817 11.6754 79.8855C11.8619 85.0029 12.6953 89.9533 14.0159 94.6768C16.8693 100.114 20.5525 105.061 24.8696 109.354C34.7803 115.777 46.6046 119.512 59.2949 119.512C94.2974 119.513 122.682 91.1376 122.682 56.135ZM38.0959 91.4956L43.4429 86.6096C49.4779 93.2137 58.0635 97.001 66.9991 97.001C75.9347 97.001 84.5207 93.2137 90.5563 86.6096L95.9032 91.4956C88.4992 99.5973 77.9642 104.244 66.9991 104.244C56.034 104.244 45.4995 99.5973 38.0959 91.4956Z"/><path fill="#FFB100" d="M122.299 44.3641H121.583C122.301 48.1787 122.682 52.1118 122.682 56.135C122.682 91.1376 94.3065 119.513 59.304 119.513C46.6136 119.513 34.7984 115.778 24.8881 109.355C35.6988 120.104 50.587 126.757 67 126.757C99.95 126.757 126.757 99.95 126.757 67C126.757 58.9925 125.169 51.3494 122.299 44.3641Z"/><path fill="#FFE454" d="M72.7775 14.2409C85.456 13.7787 97.3962 17.0789 107.532 23.1343C96.8729 13.2771 82.6289 7.24335 67 7.24335C44.9273 7.24335 25.6129 19.2736 15.2658 37.1208C15.412 37.1208 15.6067 37.1208 15.8435 37.1208C17.624 37.1208 21.812 37.1208 26.3047 37.1208C37.43 23.7156 53.9987 14.9254 72.7775 14.2409Z"/><path fill="#FFE454" d="M14.7873 57.5601C14.7873 54.1454 14.7873 48.7541 14.7873 44.3641H11.7007C8.83054 51.3494 7.24335 58.9925 7.24335 67C7.24335 76.9823 9.70699 86.3982 14.053 94.6777C12.7324 89.9542 11.8614 85.0038 11.6749 79.8864C11.3902 72.0826 12.5237 64.5581 14.7873 57.5601Z"/><path fill="#000" d="M67 0C30.0562 0 0 30.0562 0 67C0 103.944 30.0562 134 67 134C103.944 134 134 103.944 134 67C134 30.0562 103.944 0 67 0ZM67 126.757C50.5866 126.757 35.6984 120.104 24.8881 109.355C20.5711 105.062 16.9064 100.115 14.053 94.6777C9.70698 86.3981 7.24334 76.9822 7.24334 67C7.24334 58.9925 8.83054 51.3494 11.7007 44.3641H14.7873C14.7873 48.754 14.7873 54.1453 14.7873 57.5601C14.7873 58.2224 14.7873 58.8123 14.7873 59.3039C14.7873 71.6321 24.9347 81.6284 37.2625 81.6284C49.4621 81.6284 59.4837 71.906 59.6892 59.7567H59.797C59.797 55.6823 63.0279 52.5541 66.9991 52.5541C70.9703 52.5541 74.2012 55.6823 74.2012 59.7567H74.2714C74.4778 71.9074 84.3854 81.6641 96.5854 81.6641C108.913 81.6641 118.91 71.633 118.91 59.3044C118.91 56.2776 118.91 49.6056 118.91 44.3646H121.583H122.299C125.169 51.3499 126.756 58.9929 126.756 67.0005C126.757 99.95 99.95 126.757 67 126.757ZM96.5863 37.1208C87.9785 37.1208 80.5129 41.9625 76.7885 49.0795C74.2121 46.7254 70.7738 45.3103 67 45.3103C63.2167 45.3103 59.7698 46.7331 57.1921 49.0981C53.4812 41.9711 46.0287 37.1208 37.4137 37.1208C34.4398 37.1208 30.2572 37.1208 26.3055 37.1208C21.8124 37.1208 17.6244 37.1208 15.8444 37.1208C15.6076 37.1208 15.4129 37.1208 15.2667 37.1208C25.6129 19.2736 44.9273 7.24334 67 7.24334C82.6289 7.24334 96.8729 13.277 107.532 23.1343C111.927 27.1987 115.714 31.911 118.734 37.1212C118.588 37.1212 118.393 37.1212 118.156 37.1212C114.809 37.1208 102.942 37.1208 96.5863 37.1208Z"/><path fill="#000" d="M95.9032 91.4956L90.5562 86.6096C84.5207 93.2137 75.9347 97.001 66.9991 97.001C58.0635 97.001 49.4779 93.2137 43.4428 86.6096L38.0959 91.4956C45.4995 99.5973 56.034 104.244 66.9991 104.244C77.9641 104.244 88.4991 99.5973 95.9032 91.4956Z"/></g><defs><clipPath id="clip0_38_102"><rect width="134" height="134" fill="#fff"/></clipPath></defs></svg>