<svg width="52" height="140" viewBox="0 0 52 140" fill="none" xmlns="http://www.w3.org/2000/svg">
<path d="M0.199279 48.7315C0.199279 49.3549 0.450424 49.9531 0.895058 50.3903C4.94805 54.369 7.17954 59.6808 7.17954 65.3463C7.17954 71.0117 4.94833 76.3235 0.895058 80.3022C0.450701 80.7396 0.199279 81.3376 0.199279 81.9635V93.2665H51.3866V81.9635C51.3866 81.3376 51.1354 80.7396 50.6908 80.3022C46.6378 76.3235 44.4063 71.0117 44.4063 65.3463C44.4063 59.6808 46.6375 54.369 50.6908 50.3903C51.1352 49.9529 51.3866 49.3549 51.3866 48.7315V39.7529H0.199279V48.7315ZM17.0261 61.5306L28.6595 47.5703C29.4831 46.5837 30.9467 46.4512 31.9355 47.2726C32.9243 48.0962 33.057 49.562 32.2332 50.5486L23.7804 60.6928H32.7732C33.6458 60.6928 34.4436 61.1816 34.8417 61.9563C35.242 62.7311 35.1721 63.6642 34.667 64.3713L23.0336 80.6582C22.5799 81.2957 21.8633 81.6331 21.1373 81.6331C20.6696 81.6331 20.1973 81.4934 19.7879 81.2004C18.7409 80.4536 18.4989 78.9994 19.2457 77.9546L28.2523 65.3463H18.8129C17.9101 65.3463 17.0887 64.8251 16.7051 64.006C16.3234 63.1896 16.4467 62.2241 17.0261 61.5306Z" fill="black" stroke="black" stroke-width="0.397135"/>
<path d="M0.199279 132.821C0.199279 136.669 3.33112 139.801 7.17926 139.801H44.4063C48.2547 139.801 51.3863 136.669 51.3863 132.821V97.9205H0.199279V132.821Z" fill="black" stroke="black" stroke-width="0.397135"/>
<path d="M44.4066 21.1395H37.4266V15.4344C37.4266 12.6052 35.4302 10.2388 32.7732 9.65248V5.92769C32.7732 2.76785 30.2043 0.199279 27.0448 0.199279H24.5414C21.3818 0.199279 18.8129 2.76785 18.8129 5.92769V9.50611H16.4864C15.2021 9.50611 14.1598 10.5484 14.1598 11.8327V21.1395H7.17981C3.3314 21.1395 0.19983 24.2714 0.19983 28.1195V35.0995H51.3871V28.1195C51.3866 24.2714 48.255 21.1395 44.4066 21.1395Z" fill="black" stroke="black" stroke-width="0.397135"/>
</svg>
