<svg width="133" height="130" viewBox="0 0 133 130" fill="none" xmlns="http://www.w3.org/2000/svg">
<path d="M53.1442 14.1883V11.2238H53.092C52.8493 9.58761 51.0461 8.14712 48.2355 7.10068V5.21656C48.2329 5.22438 48.2303 5.2296 48.2277 5.23743C48.1912 2.29904 43.3452 0 37.1605 0C31.1141 0 26.3777 2.20249 26.135 5.04693C26.1402 4.9843 26.1271 4.92428 26.1402 4.86426H26.088V7.01195C23.1366 8.06361 21.242 9.54324 20.9915 11.2264H20.9393V14.1805C13.8543 16.2264 9.11527 19.6006 8.442 23.5515H8.30369V31.195C3.37941 32.9355 0 37.7554 0 43.3321V99.506C0 105.08 3.3768 109.903 8.30369 111.646V114.402C8.30369 121.142 20.9262 126.424 37.043 126.424C53.1572 126.424 65.7798 121.145 65.7798 114.402V23.7576C65.7511 23.7994 65.7197 23.8438 65.691 23.8855C65.237 19.7937 60.4223 16.2916 53.1442 14.1883ZM8.30369 108.874C4.87992 107.267 2.60958 103.634 2.60958 99.506V43.3295C2.60958 39.1985 4.87992 35.5686 8.30369 33.9585V108.874ZM37.043 24.3839C28.0765 24.3839 22.051 21.7326 22.051 19.2561C22.051 19.0317 22.1267 18.8099 22.2284 18.5854C24.8328 20.8767 31.0123 22.1893 37.043 22.1893C43.0686 22.1893 49.2428 20.8793 51.8498 18.5907C51.9568 18.8125 52.0325 19.0343 52.0325 19.2561C52.0325 21.7326 46.0096 24.3839 37.043 24.3839ZM52.0325 21.5604V23.8151C52.0325 26.1428 45.8791 28.7341 37.043 28.7341C28.207 28.7341 22.051 26.1428 22.051 23.8151V21.5604C24.3735 23.8829 30.1276 25.493 37.043 25.493C43.9584 25.493 49.7099 23.8855 52.0325 21.5604ZM37.043 21.0802C28.207 21.0802 22.051 18.4889 22.051 16.1611V13.9039C24.3709 16.229 30.1276 17.8391 37.043 17.8391C43.9584 17.8391 49.7099 16.2316 52.0325 13.9065V16.1611C52.0325 18.4889 45.8791 21.0802 37.043 21.0802ZM37.1631 1.11168C43.1208 1.11168 47.1239 3.26459 47.1239 5.27397C47.1239 5.45142 47.056 5.63148 46.9934 5.81154C45.3963 4.19621 41.7064 3.11584 37.1631 3.11584C32.6067 3.11584 28.922 4.20665 27.3354 5.8272C27.2701 5.64453 27.2023 5.45925 27.2023 5.27658C27.1997 3.26198 31.2028 1.11168 37.1631 1.11168ZM46.3749 6.79535C44.9527 8.23584 41.6046 9.43364 37.1631 9.43364C32.7216 9.43364 29.3709 8.23845 27.9512 6.79535C29.0133 5.45664 32.4737 4.2197 37.1631 4.2197C41.8551 4.2197 45.318 5.45403 46.3749 6.79535ZM27.1997 7.56779C28.9664 9.33709 32.7007 10.5427 37.1605 10.5427C41.6202 10.5427 45.3546 9.33709 47.1212 7.56779V9.05786C47.1212 10.9837 43.1181 13.0479 37.1605 13.0479C31.2028 13.0479 27.1997 10.9837 27.1997 9.05786V7.56779ZM26.088 8.17321V9.05786C26.088 11.918 30.9523 14.157 37.1605 14.157C43.3687 14.157 48.2329 11.918 48.2329 9.05786V8.26194C50.6337 9.21444 52.0299 10.4227 52.0299 11.6022C52.0299 14.0787 46.007 16.73 37.0404 16.73C28.0739 16.73 22.0484 14.0787 22.0484 11.6022C22.051 10.3861 23.541 9.13876 26.088 8.17321ZM21.0437 16.8762C21.1298 17.1763 21.2864 17.4607 21.4743 17.7373C21.2394 18.1053 21.088 18.4863 21.028 18.8777H20.9393V23.8151C20.9393 27.5885 29.1282 29.8432 37.043 29.8432C44.9553 29.8432 53.1442 27.5885 53.1442 23.8151V18.8777H53.0607C52.998 18.4837 52.8467 18.1027 52.6092 17.7321C52.7945 17.4581 52.9484 17.1763 53.0346 16.8814C59.3367 18.8177 63.1676 21.7457 63.1676 24.504C63.1676 29.149 52.4396 34.3238 37.0404 34.3238C21.6413 34.3238 10.9107 29.149 10.9107 24.504C10.9133 21.7483 14.7363 18.8151 21.0437 16.8762ZM63.1702 29.7414V36.7769C60.6128 41.4506 49.6839 45.0805 37.043 45.0805C24.3996 45.0805 13.4707 41.448 10.9133 36.7769V30.4277V29.7414C15.4044 34.0237 25.279 36.9386 37.043 36.9386C48.8044 36.9386 58.6791 34.0237 63.1702 29.7414ZM10.9107 39.1959C15.0416 43.5539 25.0468 46.5602 37.0404 46.5602C49.0315 46.5602 59.0366 43.5539 63.1676 39.1959V106.695C60.6102 111.369 49.6839 114.999 37.0404 114.999C24.397 114.999 13.4681 111.367 10.9107 106.695V39.1959ZM63.1728 114.396C63.1676 115.74 62.1811 117.123 60.404 118.407L59.5298 115.143L58.8174 115.333L59.7568 118.84C58.5225 119.631 56.9802 120.372 55.1666 121.03L54.094 117.024L53.3816 117.215L54.4698 121.278C52.9876 121.779 51.3436 122.225 49.5508 122.598L48.4626 118.532L47.7502 118.723L48.8253 122.737C47.4318 123.005 45.9626 123.23 44.4151 123.402L43.3608 119.467L42.6484 119.657L43.6714 123.478C41.9517 123.647 40.1484 123.754 38.2695 123.786L37.4032 120.55L36.6907 120.74L37.5101 123.801C37.3536 123.801 37.2048 123.812 37.0456 123.812C35.613 123.812 34.2351 123.757 32.8886 123.673L31.8291 119.722L31.1167 119.913L32.1109 123.624C30.4016 123.501 28.7733 123.313 27.2258 123.076L26.2576 119.467L25.5452 119.657L26.4299 122.958C24.3578 122.609 22.4685 122.155 20.754 121.635L19.7389 117.849L19.0265 118.039L19.9216 121.382C18.014 120.756 16.3699 120.041 15.026 119.271L13.8204 114.772L13.1079 114.963L14.1074 118.697C12.0589 117.332 10.9159 115.839 10.9159 114.396V112.405V109.109C15.0469 113.467 25.052 116.474 37.0456 116.474C49.0367 116.474 59.0418 113.467 63.1728 109.109V114.396Z" fill="black"/>
<path d="M132.99 70.858C132.99 70.8293 133 70.8032 133 70.7745C133 65.9102 126.821 61.808 117.622 59.762C118.405 58.8487 119.315 57.9771 120.364 57.1499C121.218 56.4766 121.974 55.6989 122.799 54.8534C124.694 52.9041 125.727 50.4354 125.876 47.5153C126.327 38.6375 120.978 31.2341 111.565 27.7085L108.501 26.5629L111.505 29.6605C111.975 30.1276 112.4 30.553 112.781 31.0149C117.677 36.9256 118.238 45.9652 114.083 52.0481C112.648 54.1488 111.745 56.3931 111.309 58.7521C110.08 58.619 108.82 58.5173 107.528 58.452C109.819 55.2736 110.529 51.6567 109.576 47.6431C108.363 42.5179 102.544 37.5101 96.3223 36.2393L92.6898 35.4981L95.7586 37.578C100.328 40.6729 100.448 44.543 99.9601 47.9224C99.5008 51.1113 98.0577 54.1462 95.5551 57.202C95.101 57.7553 94.6365 58.4129 94.2112 59.1201C83.2039 60.8476 75.5239 65.3492 75.5239 70.7797L76.1137 80.9127C76.1111 80.9336 76.0902 80.9466 76.0902 80.9675C76.0902 81.1215 76.1293 81.2676 76.1424 81.419L77.8386 110.602V114.407C77.8386 121.484 88.7049 126.429 104.263 126.429C104.905 126.429 105.526 126.411 106.15 126.393C106.354 127.061 106.706 127.676 107.223 128.175C108.005 128.934 109.028 129.349 110.109 129.349C110.132 129.349 110.156 129.349 110.177 129.349L120.497 129.185C121.607 129.166 122.643 128.715 123.418 127.917C124.193 127.118 124.61 126.066 124.589 124.96L124.548 122.421C128.423 120.357 130.685 117.611 130.685 114.409L130.683 110.683L132.389 81.3407C132.397 81.2154 132.431 81.0954 132.431 80.9701C132.431 80.9519 132.413 80.9414 132.413 80.9258L132.997 70.8815L132.99 70.858ZM115.304 52.8754C119.683 46.4636 119.25 37.0378 114.375 30.6391C118.759 33.0764 124.869 38.1599 124.396 47.437C124.266 50.0257 123.397 52.1134 121.648 53.9114C120.946 54.629 120.226 55.3727 119.446 55.9834C115.944 58.7495 113.833 61.9567 113.013 65.7041C112.971 65.6962 112.932 65.691 112.891 65.6832C111.878 60.9494 112.669 56.7349 115.304 52.8754ZM111.03 61.333C110.993 62.6665 111.103 64.0313 111.359 65.4301C109.013 65.0986 106.518 64.9186 103.932 64.9186C103.162 64.9186 102.416 64.9655 101.667 64.9995C102.572 63.7443 103.739 62.4473 105.289 60.9833C107.293 61.0173 109.208 61.1373 111.03 61.333ZM94.3834 63.1258C94.4564 61.5366 95.1715 59.9995 96.7007 58.1337C99.3781 54.8612 100.926 51.5888 101.424 48.1285C101.834 45.2841 101.873 41.8238 99.2894 38.7392C103.603 40.6442 107.277 44.3394 108.141 47.9824C109.224 52.557 108.003 56.4166 104.412 59.7829C102.382 61.6853 100.944 63.332 99.887 64.9682C98.3839 67.3037 98.2351 69.8115 98.4987 72.2646C95.5107 69.0887 94.2294 66.2129 94.3834 63.1258ZM99.0415 74.8846L100.646 76.3746L100.184 73.6894C99.7409 71.0198 99.5477 68.2145 101.124 65.7667C101.124 65.7641 101.127 65.7641 101.127 65.7615C102.05 65.7119 102.974 65.6571 103.929 65.6571C106.573 65.6571 109.114 65.8502 111.497 66.1921C111.695 67.095 111.938 68.0083 112.259 68.9399C112.337 69.1722 112.439 69.3966 112.541 69.6184L114.125 73.2745L114.081 69.5897C114.067 68.585 114.167 67.6247 114.326 66.6931C121.507 68.191 126.729 71.1816 127.87 74.741C123.846 77.943 115.252 80.5891 104.25 80.5891C92.7889 80.5891 83.9242 77.7212 80.1351 74.3392C81.5181 70.9885 86.539 68.1962 93.3552 66.7453C94.4069 70.2186 96.9721 72.9613 99.0415 74.8846ZM115.323 102.048V102.045V101.017C115.498 101.085 115.659 101.187 115.8 101.322C116.074 101.591 116.233 101.951 116.239 102.335C116.252 103.131 115.615 103.788 114.822 103.801C114.034 103.809 113.368 103.178 113.355 102.384C113.345 101.656 113.885 101.069 114.587 100.96V102.048H115.323ZM93.0864 61.9645C93.0134 62.322 92.9194 62.6665 92.9011 63.0475C92.8489 64.1018 92.9873 65.0908 93.2117 66.0433C86.3641 67.5282 81.2728 70.3778 79.6184 73.8146C78.6659 72.8126 78.1309 71.7818 78.1309 70.7719C78.1309 67.3664 83.9346 63.6921 93.0864 61.9645ZM78.4336 76.2859C83.0578 80.4143 92.755 83.2039 104.258 83.2039C107.919 83.2039 111.387 82.909 114.582 82.3923V90.5081C111.387 91.0483 107.893 91.3484 104.258 91.3484C92.6063 91.3484 82.4237 88.2639 78.8929 84.1225L78.4336 76.2859ZM105.926 123.778C105.378 123.793 104.832 123.812 104.261 123.812C88.791 123.814 80.443 118.963 80.443 114.401L80.4404 110.521L79.0208 86.2911C83.5849 90.195 93.0473 92.8255 104.258 92.8255C107.925 92.8255 111.395 92.5332 114.582 92.0191V94.8975L114.527 94.9523C113.613 95.85 105.599 103.796 105.639 105.975L105.926 123.778ZM122.883 127.392C122.246 128.05 121.395 128.423 120.484 128.436L110.164 128.6C109.263 128.598 108.392 128.274 107.731 127.635C107.071 126.998 106.701 126.145 106.688 125.236L106.377 105.962C106.354 104.621 111.215 99.2972 114.584 95.9413V100.213C113.47 100.328 112.598 101.252 112.614 102.392C112.635 103.582 113.611 104.537 114.798 104.537C114.811 104.537 114.822 104.537 114.832 104.537C116.035 104.519 116.995 103.522 116.977 102.322C116.969 101.737 116.732 101.194 116.314 100.79C116.035 100.519 115.691 100.378 115.323 100.284V96.2257C118.778 99.4825 123.517 104.381 123.538 105.685L123.767 119.876C123.739 119.895 123.718 119.913 123.689 119.929C123.736 120.062 123.775 120.203 123.775 120.37L123.848 124.96C123.864 125.871 123.522 126.734 122.883 127.392ZM128.073 110.597V114.401C128.073 116.121 126.807 117.862 124.498 119.383L124.276 105.675C124.245 103.642 117.048 96.8155 115.32 95.2106V91.9095C121.541 90.8187 126.539 88.8197 129.495 86.2911L128.073 110.597ZM129.623 84.1225C127.282 86.8678 122.008 89.1433 115.32 90.3672V82.2775H115.323C121.826 81.1345 127.045 78.9999 130.082 76.2859L129.623 84.1225ZM128.48 74.2557C127.055 70.5814 121.703 67.5203 114.451 65.9859C114.759 64.6054 115.289 63.3137 115.996 62.0846C124.814 63.8539 130.388 67.4394 130.388 70.7719C130.388 71.9305 129.72 73.1205 128.48 74.2557Z" fill="black"/>
<path d="M113.159 107.029L112.878 106.902L112.703 107.16C112.549 107.384 108.976 112.726 110.406 117.794C111.836 122.859 117.671 125.55 117.919 125.662L118.201 125.79L118.376 125.531C118.53 125.307 122.102 119.965 120.672 114.897C119.242 109.829 113.405 107.139 113.159 107.029ZM118.478 112.196C118.976 112.864 119.381 113.613 119.691 114.415L114.973 112.969L114.451 111.119L118.478 112.196ZM117.656 111.213L114.216 110.291L113.595 108.089C114.535 108.611 116.207 109.66 117.656 111.213ZM111.116 117.588C110.067 113.872 111.988 109.871 112.88 108.29L116.588 121.437L116.552 121.549L116.627 121.573L117.481 124.597C115.892 123.718 112.165 121.309 111.116 117.588ZM118.193 124.394L117.473 121.841L119.169 122.379C118.82 123.232 118.465 123.916 118.193 124.394ZM119.425 121.685L117.233 120.988L116.797 119.441L119.824 120.398C119.704 120.85 119.574 121.275 119.425 121.685ZM120.009 119.678L116.554 118.587L116.019 116.687L120.229 117.815C120.2 118.452 120.135 119.078 120.009 119.678ZM115.787 115.86L115.21 113.817L119.991 115.284C120.14 115.871 120.21 116.46 120.231 117.05L115.787 115.86Z" fill="black"/>
<path d="M37.1604 58.7391L26.9883 68.3789L37.1604 78.0187L47.3326 68.3789L37.1604 58.7391ZM28.28 68.3789L37.163 59.9604L46.0461 68.3789L37.163 76.7974L28.28 68.3789Z" fill="black"/>
<path d="M51.1086 68.3789L37.163 55.1666L23.2174 68.3789L37.163 81.5912L51.1086 68.3789ZM37.163 57.1055L49.0653 68.3815L37.163 79.6575L25.2607 68.3815L37.163 57.1055Z" fill="black"/>
</svg>
