<svg xmlns="http://www.w3.org/2000/svg" width="93" height="108" fill="none" viewBox="0 0 93 108"><path fill="#000" d="M27.8773 79.4583C27.2649 78.8458 26.2441 78.8458 25.6317 79.4583L16.2183 88.8717C15.6058 89.4841 15.6058 90.5048 16.2183 91.1173C16.5358 91.4348 16.9441 91.5936 17.3297 91.5936C17.738 91.5936 18.1463 91.4348 18.4412 91.1173L27.8546 81.7039C28.4897 81.0914 28.4897 80.0707 27.8773 79.4583Z"/><path fill="#000" d="M27.2648 86.3992L21.39 92.2741C20.7775 92.8865 20.7775 93.9073 21.39 94.5197C21.7075 94.8373 22.1158 94.9961 22.5014 94.9961C22.9097 94.9961 23.318 94.8373 23.6129 94.5197L29.4878 88.6448C30.1002 88.0324 30.1002 87.0117 29.4878 86.3992C28.898 85.7868 27.9 85.7868 27.2648 86.3992Z"/><path fill="#000" d="M75.1485 79.4583C74.5361 78.8458 73.5153 78.8458 72.9029 79.4583L63.4895 88.8717C62.8771 89.4841 62.8771 90.5048 63.4895 91.1173C63.8071 91.4348 64.2153 91.5936 64.601 91.5936C64.9866 91.5936 65.4175 91.4348 65.7124 91.1173L75.1258 81.7039C75.761 81.0914 75.761 80.0707 75.1485 79.4583Z"/><path fill="#000" d="M74.5587 86.3992L68.6838 92.2741C68.0714 92.8865 68.0714 93.9073 68.6838 94.5197C69.0014 94.8373 69.4097 94.9961 69.7953 94.9961C70.1809 94.9961 70.6119 94.8373 70.9068 94.5197L76.7817 88.6448C77.3941 88.0324 77.3941 87.0117 76.7817 86.3992C76.1692 85.7868 75.1712 85.7868 74.5587 86.3992Z"/><path fill="#FF0" d="M83.9495 69.2963C80.978 67.4363 77.4622 66.3476 73.6741 66.3476H19.3258C15.5605 66.3476 12.0446 67.4363 9.05049 69.2963C3.60659 72.6988 0 78.7551 0 85.6507V92.3649C0 100.803 6.82756 107.63 15.2656 107.63H34.5007C35.2946 107.63 36.0205 107.2 36.4288 106.519L44.5719 92.4103C45.4339 90.9359 47.5661 90.9359 48.428 92.4103L56.5712 106.519C56.9795 107.2 57.7054 107.63 58.4993 107.63H77.7344C86.1724 107.63 93 100.803 93 92.3649V85.6507C93 78.7551 89.3707 72.6988 83.9495 69.2963ZM84.4939 92.3649C84.4939 96.1076 81.4544 99.1471 77.7117 99.1471H62.1058L55.7773 88.1685C53.8719 84.8568 50.3107 82.8154 46.5 82.8154C42.6893 82.8154 39.128 84.8795 37.2227 88.1685L30.8941 99.1471H15.2883C11.5456 99.1471 8.5061 96.1076 8.5061 92.3649V85.6507C8.5061 79.6851 13.3602 74.831 19.3258 74.831H73.6741C79.6397 74.831 84.4939 79.6851 84.4939 85.6507V92.3649Z"/><path fill="#FF0" d="M35.3627 14.3356C35.7937 14.6985 36.1113 15.1749 36.2247 15.6966C36.27 15.878 36.2927 16.0822 36.2927 16.2863C36.2927 16.5132 36.27 16.74 36.202 16.9668C36.1339 17.1937 36.1113 17.4205 36.1113 17.6473C36.1113 18.8722 37.0413 19.9837 38.3342 20.0971C38.8332 20.1424 39.2869 20.3466 39.6725 20.6415C40.0354 20.9363 40.3303 21.3446 40.4664 21.8437C40.8066 22.9324 41.782 23.5902 42.8254 23.5902C43.211 23.5902 43.5966 23.4995 43.9596 23.318C44.3225 23.1366 44.7081 23.0459 45.0937 23.0459C45.6608 23.0459 46.2505 23.25 46.7042 23.6356C47.1805 24.0439 47.7476 24.2254 48.3147 24.2254C49.1539 24.2254 49.9932 23.7944 50.4469 23.0005C50.9005 22.2293 51.7171 21.7756 52.5791 21.7756C52.6925 21.7756 52.8059 21.7756 52.8966 21.7983C54.3937 22.0024 55.7093 20.8456 55.7093 19.3485C55.7093 19.3032 55.7093 19.2805 55.7093 19.2351C55.7093 19.1898 55.7093 19.1671 55.7093 19.1217C55.7093 18.169 56.2537 17.2844 57.1383 16.8761C57.5466 16.6946 57.8642 16.3998 58.1137 16.0822C58.4086 15.6512 58.5674 15.1522 58.5674 14.6305C58.5674 14.1315 58.4313 13.6551 58.1137 13.2015C57.5466 12.3849 57.5013 11.2961 58.0456 10.4568C58.2952 10.0485 58.4313 9.59488 58.4313 9.14122C58.4313 8.16585 57.8642 7.23585 56.8888 6.85024C56.4352 6.66878 56.0496 6.35122 55.7774 5.94293C55.5052 5.53463 55.3464 5.08098 55.3464 4.58195C55.3237 3.19829 54.1896 2.1322 52.8739 2.1322C52.7152 2.1322 52.5564 2.15488 52.4203 2.17756C52.2615 2.20024 52.1027 2.22293 51.9666 2.22293C51.15 2.22293 50.3561 1.81463 49.9025 1.11146C49.4261 0.38561 48.6322 0 47.8383 0C47.2259 0 46.6135 0.226829 46.1371 0.680488C45.6608 1.13415 45.0483 1.36098 44.4359 1.36098C44.0957 1.36098 43.7554 1.29293 43.4378 1.15683C43.0976 1.02073 42.7574 0.93 42.4398 0.93C41.351 0.93 40.3076 1.67854 40.0354 2.81268C39.922 3.28902 39.6498 3.72 39.3096 4.03756C38.9466 4.35512 38.5157 4.58195 38.0166 4.65C36.7691 4.83146 35.9071 5.92024 35.9071 7.09976C35.9071 7.37195 35.9525 7.64415 36.0432 7.89366C36.1339 8.16585 36.1793 8.41536 36.1793 8.68756C36.1793 9.39073 35.8844 10.0712 35.34 10.5476C34.773 11.0466 34.5008 11.7271 34.5008 12.4076C34.4327 13.1107 34.7503 13.8366 35.3627 14.3356Z"/><path fill="#000" d="M73.6741 63.1719C76.9405 63.1719 80.1387 63.8751 83.0648 65.2134C81.84 59.8375 80.3429 54.371 78.5283 49.0632C78.1427 49.3354 77.689 49.789 77.0085 50.4695C75.0578 52.4429 72.1317 55.4371 66.597 55.4371C61.0624 55.4371 58.1363 52.4429 56.1856 50.4695C54.6431 48.9044 54.2802 48.6322 53.2141 48.6322C52.1253 48.6322 51.7851 48.9044 50.2427 50.4695C48.2919 52.4429 45.3658 55.4371 39.8312 55.4371C34.2966 55.4371 31.3478 52.4429 29.4197 50.4695C27.8773 48.9044 27.5144 48.6322 26.4483 48.6322C25.3595 48.6322 25.0192 48.9044 23.4768 50.4695C21.5261 52.4429 18.6 55.4371 13.0653 55.4371C12.8839 55.4371 12.7024 55.4371 12.4983 55.4144C11.5456 58.6807 10.7063 61.9697 9.98047 65.2134C12.9066 63.8524 16.1049 63.1493 19.3712 63.1493H73.6741V63.1719Z"/><path fill="#000" d="M36.8143 43.1656C38.3568 44.7307 38.7197 45.0029 39.7858 45.0029C40.8519 45.0029 41.2148 44.7307 42.7572 43.1656C44.708 41.1922 47.6341 38.198 53.1687 38.198C58.7033 38.198 61.6294 41.1922 63.5802 43.1656C65.1226 44.7307 65.4855 45.0029 66.5516 45.0029C67.6404 45.0029 67.9807 44.7307 69.5231 43.1656C70.7253 41.9407 72.3358 40.3076 74.6948 39.2641C70.8841 30.5993 66.166 23.0232 60.5407 18.0556C60.087 18.6681 59.4972 19.1671 58.8394 19.5527C58.726 22.5695 56.2536 24.9966 53.1914 24.9966C53.1007 24.9966 52.9872 24.9966 52.8965 24.9966C51.8531 26.4937 50.1065 27.4237 48.2465 27.4237C47.067 27.4237 45.9102 27.038 44.9575 26.3576C44.277 26.6298 43.5285 26.7885 42.8026 26.7885C40.4436 26.7885 38.4021 25.3595 37.5402 23.2046C34.8636 22.7283 32.8902 20.4146 32.8902 17.6473V17.602C26.4255 23.0685 21.1404 31.9829 17.0121 42.1222C18.9402 40.2849 21.7529 38.2207 26.3575 38.2207C31.9375 38.198 34.8863 41.1922 36.8143 43.1656Z"/></svg>